<svg width="256" height="256" viewBox="0 0 256 256" fill="none" xmlns="http://www.w3.org/2000/svg">
  <defs>
    <linearGradient id="logoBg" x1="40" y1="28" x2="214" y2="226" gradientUnits="userSpaceOnUse">
      <stop offset="0" stop-color="#2AC98A"/>
      <stop offset="1" stop-color="#136D51"/>
    </linearGradient>
    <radialGradient id="logoGlow" cx="0" cy="0" r="1" gradientUnits="userSpaceOnUse" gradientTransform="translate(188 56) rotate(131.987) scale(120.59 114.866)">
      <stop stop-color="#EFFFF6" stop-opacity="0.7"/>
      <stop offset="1" stop-color="#EFFFF6" stop-opacity="0"/>
    </radialGradient>
  </defs>
  <rect x="18" y="18" width="220" height="220" rx="56" fill="url(#logoBg)"/>
  <rect x="18" y="18" width="220" height="220" rx="56" fill="url(#logoGlow)"/>
  <g transform="translate(32 30) scale(8)">
    <path d="M12 22a1 1 0 0 1 0-20a10 9 0 0 1 10 9a5 5 0 0 1-5 5h-2.25a1.75 1.75 0 0 0-1.4 2.8l.3 .4A1.75 1.75 0 0 1 12 22z" stroke="#F8FFF9" stroke-width="1.9" stroke-linecap="round" stroke-linejoin="round"/>
    <circle cx="13.5" cy="6.5" r="0.95" fill="#F8FFF9"/>
    <circle cx="17.6" cy="10.4" r="0.95" fill="#DFF7E9"/>
    <circle cx="6.6" cy="12.4" r="0.95" fill="#B6F0D1"/>
    <circle cx="8.6" cy="7.6" r="0.95" fill="#F3FFB8"/>
  </g>
</svg>
