<svg width="513" height="513" viewBox="0 0 513 513" fill="none" xmlns="http://www.w3.org/2000/svg">
<path d="M252.957 63.4434C241.86 63.6456 226.919 65.7686 216.024 68.6668C197.136 73.6543 178.08 82.7531 162.632 94.1097C153.289 100.984 142.395 110.825 135.784 118.306C119.257 137.043 106.777 160.261 100.234 184.356C99.7617 186.008 99.3232 187.76 99.222 188.232C99.1208 188.704 98.6486 190.894 98.1427 193.118C95.5119 204.947 94.5 214.618 94.5 227.323C94.5 249.43 98.5137 269.582 106.777 288.723C115.445 308.842 125.227 323.568 139.46 337.89C146.004 344.462 148.972 347.158 154.47 351.37C159.225 355.043 161.283 356.492 162.632 357.2C164.048 357.908 169.749 357.975 171.131 357.268C172.346 356.627 174.133 354.605 174.403 353.527C174.842 351.775 174.336 351.134 170.086 348.202C163.037 343.282 157.1 338.295 150.726 331.959C143.845 325.118 139.561 320.097 134.401 312.818C123.979 298.193 115.682 280.602 111.702 264.729C110.049 258.158 109.847 257.248 109.105 252.901C106.103 235.141 106.305 215.899 109.644 199.016C114.535 174.247 124.957 151.533 140.101 132.628C145.7 125.619 156.156 115.138 163.104 109.51C178.957 96.7046 196.226 87.5384 215.012 81.9443C230.865 77.2264 246.448 75.3055 263.379 76.0132C267.663 76.1817 272.621 76.5187 274.375 76.7209C291.779 78.7766 309.048 83.9326 324.125 91.5149C345.003 102.063 360.686 115.003 376.674 134.92C384.735 144.928 392.864 159.689 398.26 174.078C405.444 193.152 408.311 210.473 407.839 231.704C407.401 250.778 404.028 266.785 396.776 284.207C391.38 297.182 382.475 311.706 373.368 322.355C368.748 327.781 360.754 335.835 356.706 339.137C354.986 340.553 352.389 342.676 350.973 343.855C349.556 345.035 346.891 346.989 345.07 348.236C341.023 350.932 340.449 351.909 341.326 354.235C342.068 356.189 343.451 357.268 345.778 357.739C348.308 358.279 351.04 357.942 352.895 356.863C355.458 355.347 364.093 348.674 368.14 345.068C379.979 334.554 389.761 322.692 398.328 308.471C401.262 303.652 407.603 291.116 407.603 290.206C407.603 290.105 407.974 289.229 408.412 288.251C412.696 278.917 417.62 261.056 419.071 249.632C419.239 248.116 419.577 245.689 419.745 244.24C420.352 239.792 420.656 228.166 420.42 221.089C419.341 192.444 410.706 164.541 395.09 139.334C382.61 119.182 363.149 99.906 342.844 87.5721C332.253 81.1355 324.125 77.2264 311.308 72.5085C294.578 66.3415 273.397 63.039 252.957 63.4434Z" fill="black"/>
<path d="M332.019 114.953C330.262 115.291 316.178 117.819 312.767 118.426C310.808 118.797 308.579 119.202 307.802 119.303C306.114 119.573 304.661 121.022 304.661 122.506C304.661 123.45 306.654 126.013 308.849 127.901C310.977 129.688 311.383 130.261 311.146 130.902C311.011 131.273 309.694 132.588 308.208 133.869C306.722 135.116 304.459 137.139 303.142 138.353C301.858 139.567 298.818 142.298 296.387 144.422C293.989 146.546 291.456 148.772 290.814 149.345C289.53 150.458 283.181 156.156 278.824 160.067C277.338 161.416 272.035 166.136 267.003 170.553C256.702 179.657 255.351 180.871 241.469 193.346C239.916 194.762 237.281 197.089 235.593 198.572C233.938 200.022 231.405 202.349 229.986 203.663C228.568 205.046 227.149 206.125 226.778 206.125C226.406 206.125 225.731 205.788 225.258 205.383C221.374 201.809 213.943 194.83 210.769 191.795C203 184.276 202.291 183.77 199.42 183.804C197.056 183.838 195.536 184.647 191.585 188.187C189.761 189.806 187.667 191.66 186.924 192.301C186.147 192.941 183.952 194.931 182.027 196.718C178.109 200.359 170.982 206.698 155.547 220.354C152.947 222.646 147.408 227.569 143.254 231.244C139.065 234.953 133.459 239.91 130.757 242.236C128.055 244.563 125.353 246.99 124.779 247.665C122.313 250.497 123.327 255.521 126.805 257.544C128.528 258.555 131.027 258.656 132.648 257.78C133.594 257.274 154.669 238.831 165.68 228.884C167.909 226.827 171.286 223.86 173.144 222.242C177.095 218.803 176.791 219.072 183.614 213.037C186.552 210.441 191.247 206.293 193.983 203.832C197.36 200.831 199.15 199.449 199.454 199.617C199.691 199.786 204.858 204.574 210.937 210.306C217.861 216.813 222.522 220.927 223.4 221.331C225.224 222.141 227.69 222.141 229.311 221.331C230.02 220.96 231.438 219.915 232.452 219.039C234.343 217.42 245.185 207.743 247.752 205.417C248.495 204.742 250.555 202.922 252.345 201.371C256.026 198.134 277.777 178.746 285.95 171.396C288.923 168.699 294.259 163.945 297.771 160.809C301.284 157.639 305.067 154.234 306.181 153.222C307.296 152.177 308.816 150.795 309.559 150.154C310.302 149.514 313.004 147.052 315.537 144.692C318.07 142.332 320.366 140.376 320.603 140.376C320.839 140.376 322.562 141.893 324.419 143.782C328.54 147.895 329.249 148.367 330.668 147.625C332.458 146.681 332.559 146.378 335.565 130.059C336.578 124.495 337.423 119.505 337.423 118.999C337.423 116.302 334.957 114.448 332.019 114.953ZM315.435 185.321C314.422 185.928 311.112 188.154 308.039 190.278C304.965 192.402 300.71 195.302 298.582 196.751C296.454 198.235 294.293 199.853 293.786 200.393C291.692 202.652 291.827 196.313 291.827 293.419C291.827 354.042 291.928 382.365 292.199 383.242C292.705 385.096 294.495 386.714 296.792 387.389C298.481 387.861 299.089 387.895 301.453 387.557C306.046 386.849 307.667 386.209 309.525 384.321C311.518 382.264 316.043 376.262 318.678 372.182C321.549 367.732 323.136 364.158 323.541 361.089C323.811 359.269 323.913 332.126 323.913 273.424V188.356L323.136 186.906C321.616 184.04 318.61 183.433 315.435 185.321ZM272.711 216.948C272.137 217.117 270.549 218.027 269.164 218.971C267.78 219.881 262.68 223.321 257.816 226.557C252.953 229.794 248.663 232.863 248.292 233.402C247.92 233.908 247.448 234.987 247.245 235.83C246.975 236.875 246.907 258.184 246.975 310.345L247.076 383.343L247.988 384.725C248.528 385.568 249.474 386.377 250.453 386.849C251.906 387.557 252.48 387.591 261.971 387.726C267.915 387.793 272.542 387.726 273.454 387.524C275.379 387.085 277.304 385.804 278.148 384.422C278.824 383.309 278.824 382.298 278.892 302.388C278.959 247.024 278.858 221.129 278.621 220.387C278.25 219.241 275.919 216.914 275.143 216.914C274.872 216.914 274.467 216.847 274.197 216.779C273.96 216.712 273.285 216.78 272.711 216.948ZM226.474 250.665C225.731 251.07 223.164 252.79 220.732 254.509C215.531 258.184 209.755 262.163 206.716 264.186C204.926 265.366 204.351 266.007 203.507 267.625L202.494 269.648L202.392 320.561C202.325 357.246 202.392 372.014 202.663 373.261C203.102 375.352 207.087 381.185 210.093 384.152C212.694 386.748 214.011 387.153 221.441 387.557C228.737 387.928 230.054 387.726 232.35 385.635L233.904 384.219L234.005 319.583C234.039 277.673 233.972 254.509 233.735 253.7C232.925 250.632 229.277 249.114 226.474 250.665ZM224.447 396.492C222.894 397.302 222.218 398.01 221.509 399.594C220.935 400.842 220.901 401.213 221.272 402.292C221.711 403.742 222.927 405.158 224.717 406.27L225.967 407.08L259.37 407.012L292.773 406.911L294.225 405.9C296.252 404.45 297.231 402.932 297.231 401.145C297.231 399.898 297.028 399.426 295.981 398.279C295.272 397.504 294.225 396.661 293.617 396.391C292.739 396.02 286.356 395.953 258.998 395.953C229.243 395.953 225.359 396.02 224.447 396.492ZM234.073 415.442C232.384 416.183 231.033 417.903 231.033 419.252C231.033 419.724 231.641 421.039 232.418 422.118C233.161 423.23 236.91 428.794 240.76 434.559C244.577 440.291 248.461 445.753 249.339 446.63C253.358 450.642 260.079 451.586 265.517 448.855C266.53 448.35 267.949 447.372 268.624 446.697C269.3 446.023 273.656 439.752 278.317 432.806C287.335 419.285 287.436 419.083 286.052 417.161C284.566 415.071 285.748 415.172 258.998 415.206C245.556 415.206 234.343 415.307 234.073 415.442Z" fill="black"/>
</svg>
